<?xml version="1.0" encoding="utf-8" ?>	<!-- Generator: Assembly 2.2 - http://assemblyapp.co -->	<svg version="1.1" xmlns="http://www.w3.org/2000/svg" xmlns:xlink="http://www.w3.org/1999/xlink" width="2048.00" height="2048.00" viewBox="0 0 2048.0 2048.0">		<g id="document" transform="matrix(1,0,0,1,1024.0,1024.0)">			<path d="M-236.841,89.5028 C-352.228,77.4177 -428.125,56.7382 -428.125,33.3795 C-428.125,11.499 -356.604,-8.69835 -249.322,-20.4802 C-237.679,-2.94375 -224.35,33.8631 -210.983,63.4487 C-222.885,71.4598 -231.708,80.2223 -236.841,89.5028 L-236.841,89.5028 Z M-16.9198,17.1166 C-17.3464,-2.4725 -18.1055,-20.6851 -18.8647,-32.262 C-12.9046,-32.262 -6.94449,-32.262 1.00231,-32.262 C10.9358,-32.262 20.8693,-32.262 30.8028,-32.262 C30.0357,-20.563 29.861,-2.08775 30.1644,17.7366 C19.727,17.2091 9.07799,16.9369 -1.73791,16.9369 C-6.83719,16.9369 -11.8994,16.9974 -16.9198,17.1166 L-16.9198,17.1166 Z M222.366,75.3957 C235.743,45.0516 247.508,1.13762 259.273,-18.797 C362.582,-7.01523 430.13,13.1821 430.13,35.0627 C427.612,57.4603 350.105,77.8304 233.5,89.7489 C230.804,84.8067 227.062,80.0106 222.366,75.3957 L222.366,75.3957 Z M396.356,201.691 C279.14,216.839 142.058,225.255 -0.984387,225.255 C-414.218,200.008 -428.125,325.215 -428.125,336.996 L-428.125,533.466 L-426.138,533.466 C-426.138,536.832 -428.125,540.199 -428.125,543.565 C-428.125,624.354 -237.402,689.996 -0.984394,689.996 C235.433,689.996 426.156,624.354 426.156,543.565 C426.156,540.199 426.156,536.832 424.17,533.466 L426.156,533.466 L426.156,221.888 C426.156,208.424 412.249,198.325 396.356,201.691 Z M279.14,-59.1918 C299.007,-96.2203 318.874,-134.932 334.768,-175.327 C416.223,-372.251 448.01,-607.558 418.209,-705.179 C414.236,-720.327 396.356,-727.059 382.449,-718.644 C283.114,-659.735 122.191,-417.695 56.6299,-192.158 C44.7097,-150.08 34.7762,-109.685 30.8028,-70.9736 C18.8826,-70.9736 8.94912,-70.9736 -2.97109,-70.9736 C-10.9179,-70.9736 -18.8647,-70.9736 -26.8115,-70.9736 C-32.7716,-111.368 -42.7051,-151.763 -54.6253,-192.158 C-126.147,-417.695 -289.056,-658.052 -390.378,-715.278 C-404.285,-723.693 -420.178,-715.278 -424.152,-701.813 C-449.979,-604.192 -416.205,-370.568 -332.763,-175.327 C-314.883,-134.932 -295.016,-94.5372 -275.149,-59.1918 C-515.54,-38.9944 -682.423,6.44969 -682.423,60.3094 C-682.423,132.683 -378.458,191.592 -2.97109,191.592 C372.515,191.592 676.481,132.683 676.481,60.3094 C678.467,6.44969 515.558,-38.9944 279.14,-59.1918 Z M-11.0933,-538.274 L-49.311,-468.615 L-118.97,-430.126 L-49.311,-392.179 L-11.0933,-322.249 L26.8533,-392.179 L96.7835,-430.126 L26.8533,-468.615 L-11.0933,-538.274 Z M132.178,-538.274 L186.719,-587.331 L157.04,-654.374 L83.9034,-646.692 L68.6886,-574.93 L132.178,-538.274 Z M-147.21,-654.416 L-128.984,-654.374 L-113.221,-663.523 L-104.144,-679.244 L-104.141,-697.403 L-113.252,-713.233 L-128.972,-722.31 L-147.17,-722.245 L-162.962,-713.202 L-172.038,-697.482 L-172.013,-679.216 L-162.931,-663.492 L-147.21,-654.416 Z " fill="#000000" fill-opacity="1.00" />		</g>	</svg>
